<svg width="64" height="89" viewBox="0 0 64 89" fill="none" xmlns="http://www.w3.org/2000/svg">
<g clip-path="url(#clip0_152253_21)">
<path d="M31.5215 88.776L5.83677 81.6456L0.112915 17.4473H63.0071L57.2773 81.6357L31.5215 88.776Z" fill="#264DE4"/>
<path d="M52.3719 77.5474L57.2682 22.6953H31.56V83.3171L52.3719 77.5474Z" fill="#2965F1"/>
<path d="M13.2346 46.5059L13.9402 54.3795H31.56V46.5059H13.2346Z" fill="#EBEBEB"/>
<path d="M11.8166 30.5703L12.5323 38.444H31.56V30.5703H11.8166Z" fill="#EBEBEB"/>
<path d="M31.56 66.9546L31.5255 66.9637L22.7566 64.596L22.196 58.3164H14.292L15.395 70.6793L31.5238 75.1564L31.56 75.1465V66.9546Z" fill="#EBEBEB"/>
<path d="M14.9148 0H24.4509V3.98799H18.9028V7.97598H24.4514V11.9637H14.9148V0Z" fill="black"/>
<path d="M26.3583 0H35.8946V3.4678H30.3463V4.1613H35.8946V12.1373H26.3586V8.49568H31.9069V7.80217H26.3581V0H26.3583Z" fill="black"/>
<path d="M37.8021 0H47.3384V3.4678H41.7901V4.1613H47.3384V12.1373H37.8021V8.49568H43.3504V7.80217H37.8023V0H37.8021Z" fill="black"/>
<path d="M49.8351 46.5067L51.2564 30.5703H31.5329V38.444H42.6275L41.9111 46.5067H31.5329V54.3804H41.2284L40.3143 64.592L31.5326 66.9622V75.1536L47.6742 70.6802L47.7925 69.3499L49.643 48.621L49.8351 46.5067Z" fill="white"/>
</g>
<defs>
<clipPath id="clip0_152253_21">
<rect width="63.12" height="89" fill="white"/>
</clipPath>
</defs>
</svg>
