<svg width="89" height="89" viewBox="0 0 89 89" fill="none" xmlns="http://www.w3.org/2000/svg">
<g clip-path="url(#clip0_152255_11)">
<path d="M87.3215 40.5345L48.4633 1.6784C46.2268 -0.559466 42.5973 -0.559466 40.358 1.6784L32.2889 9.7475L42.525 19.9835C44.9036 19.1798 47.6313 19.719 49.5275 21.6151C51.4326 23.5234 51.968 26.2744 51.1448 28.6607L61.0095 38.5258C63.3962 37.7036 66.1499 38.2355 68.0561 40.1448C70.7202 42.8079 70.7202 47.124 68.0561 49.7888C65.3914 52.4539 61.0752 52.4539 58.409 49.7888C56.4051 47.7828 55.9101 44.8399 56.9245 42.3712L47.7249 33.1715L47.7238 57.3813C48.3907 57.711 48.9998 58.1466 49.5275 58.6711C52.1915 61.3341 52.1915 65.6506 49.5275 68.3175C46.8627 70.9812 42.5444 70.9812 39.8835 68.3175C37.2194 65.6506 37.2194 61.3345 39.8835 58.6714C40.5219 58.0327 41.2806 57.5268 42.1158 57.1831V32.7477C41.2794 32.4063 40.5203 31.9002 39.8835 31.2594C37.865 29.2437 37.3797 26.282 38.4139 23.8036L28.3236 13.7122L1.67918 40.3548C-0.559727 42.5948 -0.559727 46.2246 1.67918 48.4628L40.5381 87.3197C42.7753 89.5579 46.4041 89.5579 48.6441 87.3197L87.3212 48.6433C89.5594 46.4044 89.5594 42.7724 87.3212 40.5345" fill="#DE4C36"/>
</g>
<defs>
<clipPath id="clip0_152255_11">
<rect width="89" height="89" fill="white"/>
</clipPath>
</defs>
</svg>
