<svg width="64" height="89" viewBox="0 0 64 89" fill="none" xmlns="http://www.w3.org/2000/svg">
<g clip-path="url(#clip0_152253_10)">
<path d="M63.0071 17.4473L57.2773 81.6357L31.5215 88.776L5.83677 81.6456L0.112915 17.4473H63.0071Z" fill="#E44D26"/>
<path d="M31.56 83.3171L52.3719 77.5474L57.2682 22.6953H31.56V83.3171Z" fill="#F16529"/>
<path d="M20.4214 38.444H31.56V30.5703H11.8165L12.0049 32.6826L13.9402 54.3804H31.56V46.5067H21.1411L20.4214 38.444Z" fill="#EBEBEB"/>
<path d="M22.196 58.3164H14.292L15.395 70.6793L31.5238 75.1564L31.56 75.1465V66.9546L31.5255 66.9637L22.7566 64.596L22.196 58.3164Z" fill="#EBEBEB"/>
<path d="M5.96449 0H9.96579V3.95323H13.6261V0H17.6277V11.9714H13.6264V7.96267H9.96604V11.9714H5.96474V0H5.96449Z" fill="black"/>
<path d="M22.8893 3.96999H19.3672V0H30.4156V3.96999H26.8913V11.9714H22.89V3.96999H22.8898H22.8893Z" fill="black"/>
<path d="M32.1689 0H36.3411L38.9076 4.20642L41.4715 0H45.6454V11.9714H41.6604V6.0377L38.9076 10.2942H38.8385L36.084 6.0377V11.9714H32.1689V0Z" fill="black"/>
<path d="M47.6367 0H51.6392V8.01444H57.2662V11.9714H47.6365V0H47.6367Z" fill="black"/>
<path d="M31.5329 54.3795H41.2285L40.3143 64.5911L31.5326 66.9613V75.1528L47.6742 70.6793L47.7925 69.349L49.643 48.6202L49.8351 46.5059H31.5329V54.3795Z" fill="white"/>
<path d="M31.5329 38.4247V38.444H50.5515L50.7093 36.6743L51.0683 32.6826L51.2564 30.5703H31.5329V38.425V38.4247Z" fill="white"/>
</g>
<defs>
<clipPath id="clip0_152253_10">
<rect width="63.12" height="89" fill="white"/>
</clipPath>
</defs>
</svg>
