<svg width="40" height="40" viewBox="0 0 40 40" fill="none" xmlns="http://www.w3.org/2000/svg">
<path d="M11.4836 0.50961H11.9836V0.5H27.8317C33.773 0.5 38.6394 5.48304 38.6394 11.612V28.386C38.6394 34.5153 33.7727 39.498 27.841 39.498H11.4836C5.54099 39.498 0.666504 34.5232 0.666504 28.4052V11.6216C0.666504 5.49319 5.54178 0.50961 11.4836 0.50961ZM2.66442 11.6303V11.6312V28.4149C2.66442 33.3993 6.57751 37.4316 11.4836 37.4316H27.841C32.7299 37.4316 36.6415 33.3978 36.6415 28.3956V11.6216C36.6415 6.61905 32.7295 2.58565 27.8317 2.58565H11.4836C6.58528 2.58565 2.67431 6.61938 2.66442 11.6303ZM30.655 7.6997C30.655 7.10812 31.1084 6.66168 31.654 6.66168C32.1996 6.66168 32.653 7.10812 32.653 7.6997C32.653 8.29128 32.1996 8.73772 31.654 8.73772C31.1084 8.73772 30.655 8.29128 30.655 7.6997ZM9.66963 20.0038C9.66963 14.3464 14.1795 9.73772 19.6623 9.73772C25.1451 9.73772 29.655 14.3464 29.655 20.0038C29.655 25.6613 25.1451 30.2699 19.6623 30.2699C14.1795 30.2699 9.66963 25.6613 9.66963 20.0038ZM27.6571 20.0038C27.6571 15.4719 24.1101 11.8137 19.6623 11.8137C15.2145 11.8137 11.6675 15.4719 11.6675 20.0038C11.6675 24.5358 15.2145 28.1939 19.6623 28.1939C24.1101 28.1939 27.6571 24.5358 27.6571 20.0038Z" fill="#070707" stroke="#070707"/>
</svg>
