<svg width="89" height="89" viewBox="0 0 89 89" fill="none" xmlns="http://www.w3.org/2000/svg">
<path d="M0 0H89V89H0V0Z" fill="#F7DF1E"/>
<path d="M23.4014 74.3745L30.212 70.2527C31.5262 72.5823 32.7214 74.5535 35.5885 74.5535C38.3368 74.5535 40.0698 73.4786 40.0698 69.297V40.8594H48.4334V69.4152C48.4334 78.0777 43.3555 82.0208 35.947 82.0208C29.2563 82.0208 25.3727 78.5557 23.4011 74.3738" fill="black"/>
<path d="M52.9762 73.4781L59.7861 69.5353C61.579 72.4629 63.909 74.6135 68.0308 74.6135C71.4966 74.6135 73.7063 72.8808 73.7063 70.491C73.7063 67.6235 71.4361 66.6077 67.6125 64.9355L65.5221 64.0385C59.4878 61.4704 55.4852 58.2441 55.4852 51.4335C55.4852 45.1604 60.2645 40.3809 67.7325 40.3809C73.0495 40.3809 76.8731 42.2332 79.6209 47.0722L73.1086 51.2545C71.6745 48.6857 70.1219 47.6702 67.7321 47.6702C65.2825 47.6702 63.7292 49.2235 63.7292 51.2545C63.7292 53.7635 65.2825 54.7797 68.8669 56.3331L70.9577 57.229C78.0673 60.2762 82.0698 63.3825 82.0698 70.3718C82.0698 77.8999 76.1555 82.0217 68.2098 82.0217C60.4435 82.0217 55.4251 78.3178 52.9759 73.4784" fill="black"/>
</svg>
