<svg width="89" height="89" viewBox="0 0 89 89" fill="none" xmlns="http://www.w3.org/2000/svg">
<path d="M15.2969 36.1563C16.5752 36.1562 17.841 36.408 19.0221 36.8972C20.2031 37.3864 21.2762 38.1035 22.1801 39.0074C23.084 39.9113 23.8011 40.9844 24.2903 42.1654C24.7795 43.3465 25.0312 44.6123 25.0312 45.8906C25.0312 47.169 24.7795 48.4348 24.2903 49.6158C23.8011 50.7968 23.084 51.8699 22.1801 52.7739C21.2762 53.6778 20.2031 54.3948 19.0221 54.884C17.841 55.3732 16.5752 55.625 15.2969 55.625C12.7152 55.625 10.2392 54.5994 8.41363 52.7739C6.58808 50.9483 5.5625 48.4723 5.5625 45.8906C5.5625 43.3089 6.58808 40.8329 8.41363 39.0074C10.2392 37.1818 12.7152 36.1563 15.2969 36.1563V36.1563ZM44.5 36.1563C45.7783 36.1562 47.0442 36.408 48.2252 36.8972C49.4062 37.3864 50.4793 38.1035 51.3832 39.0074C52.2872 39.9113 53.0042 40.9844 53.4934 42.1654C53.9826 43.3465 54.2344 44.6123 54.2344 45.8906C54.2344 47.169 53.9826 48.4348 53.4934 49.6158C53.0042 50.7968 52.2872 51.8699 51.3832 52.7739C50.4793 53.6778 49.4062 54.3948 48.2252 54.884C47.0442 55.3732 45.7783 55.625 44.5 55.625C41.9183 55.625 39.4423 54.5994 37.6168 52.7739C35.7912 50.9483 34.7656 48.4723 34.7656 45.8906C34.7656 43.3089 35.7912 40.8329 37.6168 39.0074C39.4423 37.1818 41.9183 36.1563 44.5 36.1563V36.1563ZM73.7031 36.1563C74.9815 36.1562 76.2473 36.408 77.4283 36.8972C78.6093 37.3864 79.6824 38.1035 80.5864 39.0074C81.4903 39.9113 82.2073 40.9844 82.6965 42.1654C83.1857 43.3465 83.4375 44.6123 83.4375 45.8906C83.4375 47.169 83.1857 48.4348 82.6965 49.6158C82.2073 50.7968 81.4903 51.8699 80.5864 52.7739C79.6824 53.6778 78.6093 54.3948 77.4283 54.884C76.2473 55.3732 74.9815 55.625 73.7031 55.625C71.1214 55.625 68.6454 54.5994 66.8199 52.7739C64.9943 50.9483 63.9688 48.4723 63.9688 45.8906C63.9688 43.3089 64.9943 40.8329 66.8199 39.0074C68.6454 37.1818 71.1214 36.1563 73.7031 36.1563V36.1563Z" fill="#444444"/>
</svg>
