<svg width="79" height="89" viewBox="0 0 79 89" fill="none" xmlns="http://www.w3.org/2000/svg">
<g clip-path="url(#clip0_152253_31)">
<path d="M0.630435 66.731C1.03415 67.4488 1.61739 67.9874 2.3355 68.3912L36.884 88.3128C38.3199 89.1652 40.0697 89.1652 41.4606 88.3128L76.0095 68.3912C77.4454 67.5837 78.2978 66.0579 78.2978 64.3978V24.5545C78.2978 22.8944 77.4454 21.3689 76.0095 20.5614L41.4606 0.639515C40.025 -0.213172 38.275 -0.213172 36.884 0.639515L2.33581 20.5614C0.854617 21.3689 0.00223541 22.8944 0.00223541 24.5545V64.4424C0.00223541 65.2505 0.181765 66.0132 0.630435 66.731Z" fill="#009639"/>
<path d="M28.0898 59.6871C28.0923 60.2712 27.9791 60.8499 27.7567 61.39C27.5344 61.93 27.2073 62.4207 26.7943 62.8336C26.3813 63.2466 25.8907 63.5737 25.3506 63.7961C24.8106 64.0184 24.2318 64.1317 23.6478 64.1292C23.0638 64.1316 22.4851 64.0184 21.9451 63.796C21.4051 63.5736 20.9144 63.2465 20.5015 62.8335C20.0885 62.4206 19.7615 61.9299 19.5391 61.3899C19.3168 60.8499 19.2036 60.2711 19.206 59.6871V29.2216C19.206 26.8434 21.3148 24.9141 24.231 24.9141C26.3401 24.9141 28.808 25.7665 30.2885 27.6062L31.6342 29.2216L50.2102 51.4312V29.3112C50.2077 28.7272 50.3209 28.1485 50.5433 27.6084C50.7656 27.0684 51.0927 26.5777 51.5057 26.1647C51.9187 25.7517 52.4093 25.4246 52.9494 25.2023C53.4894 24.9799 54.0682 24.8667 54.6522 24.8692C55.2362 24.8668 55.8149 24.98 56.3549 25.2024C56.8949 25.4247 57.3856 25.7519 57.7985 26.1648C58.2115 26.5778 58.5385 27.0685 58.7609 27.6085C58.9832 28.1485 59.0964 28.7272 59.094 29.3112V59.7771C59.094 62.155 56.9852 64.0842 54.069 64.0842C51.9599 64.0842 49.492 63.2319 48.0115 61.3922L28.0898 37.6118V59.6874V59.6871Z" fill="white"/>
</g>
<defs>
<clipPath id="clip0_152253_31">
<rect width="78.3" height="89" fill="white"/>
</clipPath>
</defs>
</svg>
