<svg width="89" height="89" viewBox="0 0 89 89" fill="none" xmlns="http://www.w3.org/2000/svg">
<path d="M5.92653 54.4124C4.1655 49.1982 3.65751 43.6944 4.67349 38.0296C5.11375 35.68 5.79107 33.4269 6.53612 31.1417C6.53612 31.1417 11.2096 16.5613 27.0251 9.89875C27.0251 9.89875 32.4775 7.16292 40.6731 6.9698C40.6731 6.9698 39.5555 5.93984 38.8443 5.48923C34.9836 3.04307 29.2264 2.23841 25.7382 5.68235C24.6883 6.71231 23.8078 7.83883 22.8257 8.86879C21.7081 10.0275 20.3535 10.9931 18.7956 11.5403C17.441 12.023 16.0863 11.9265 14.6978 12.1518C13.2755 12.3771 11.8192 12.8599 10.6678 13.7289C9.41474 14.6945 8.90675 15.982 8.77128 17.4625C8.63582 18.6212 8.66968 19.8121 8.60195 20.9708C8.43262 24.3826 7.28118 25.3482 4.70736 27.2472C3.62364 28.0196 2.70926 29.0496 2.03194 30.1439C-2.54253e-05 33.5557 3.25112 37.0962 3.42045 40.5401C3.45431 41.2482 3.38658 41.9563 3.11565 42.6322C2.84472 43.3725 2.30287 43.8553 1.86261 44.4668C1.25302 45.2715 0.846626 46.2371 1.01596 47.2349C1.18529 48.2326 1.72714 49.166 2.23513 50.0351C3.21725 51.58 4.43643 52.964 5.72334 54.2837C5.79107 54.2837 5.8588 54.348 5.92653 54.4124" fill="#E32286"/>
<path d="M70.543 66.7732C78.3322 63.5546 81.6511 57.9863 81.6511 57.9863C88.9323 48.5558 86.46 38.6102 86.46 38.6102C81.8204 48.2017 77.5871 50.841 77.5871 50.841C89 34.3294 77.6549 24.3517 77.6549 24.3517C82.2945 33.7501 76.1309 45.2084 76.1309 45.2084C70.9494 55.5724 63.6004 59.2738 63.6004 59.2738C71.796 60.7222 77.8242 55.4758 77.8242 55.4758C66.0727 67.5457 53.339 66.9663 53.339 66.9663C58.6899 72.6633 66.7161 72.1805 66.7161 72.1805C56.2177 74.5301 46.3626 71.2149 38.2686 64.8098C36.7447 63.619 35.2884 62.3315 33.9338 60.9475C33.9338 60.9475 32.7146 59.7244 32.4775 59.4025L32.4437 59.3704C32.2743 65.3248 38.8105 70.8609 38.8105 70.8609C30.6149 67.6422 26.8558 60.6578 26.8558 60.6578C26.8558 60.6578 21.3356 51.71 25.3318 41.507C29.328 31.3039 41.4182 29.1152 41.4182 29.1152C51.4087 33.7179 59.8752 35.1663 59.8752 35.1663C77.7226 37.9987 76.7066 29.6946 76.7066 29.6946C76.8759 22.5492 65.5308 14.9533 65.5308 14.9533C45.3128 0.694741 27.0251 9.90002 27.0251 9.90002C11.2097 16.5626 6.53614 31.143 6.53614 31.143C5.79109 33.4282 5.11377 35.6812 4.67351 38.0308C2.94634 47.5902 5.55403 56.6345 11.2097 64.6811C20.0148 77.1694 34.3063 81.4823 34.3063 81.4823C55.4726 88.3058 69.9334 78.2637 69.9334 78.2637C83.2428 69.5734 85.9182 59.5313 85.9182 59.5313C75.1826 67.5135 70.543 66.7732 70.543 66.7732ZM54.0164 19.8134C55.0323 19.8134 55.8451 20.5859 55.8451 21.5515C55.8451 22.517 55.0323 23.2895 54.0164 23.2895C53.0004 23.2895 52.1876 22.517 52.1876 21.5515C52.1876 20.5859 53.0004 19.8134 54.0164 19.8134Z" fill="url(#paint0_linear_152264_34)"/>
<path d="M76.6727 29.6623C76.8421 22.517 65.4969 14.921 65.4969 14.921C45.2789 0.69465 26.9912 9.89993 26.9912 9.89993C11.1758 16.5625 6.50227 31.1429 6.50227 31.1429C5.58788 33.6212 4.7751 37.4192 4.7751 37.4192C3.79298 42.1828 4.23324 46.5923 4.23324 46.5923C4.63963 50.8087 5.62175 53.6411 5.62175 53.6411C6.63773 56.6666 7.11186 57.6 7.11186 57.6C7.07799 57.5035 6.90866 56.7954 6.90866 56.7954C6.90866 56.7954 5.48629 50.2937 6.80706 44.0496C6.80706 44.0496 7.95851 37.548 12.632 32.5269C12.632 32.5269 20.218 22.2595 34.3402 26.2828C34.3402 26.2828 37.3881 27.3127 38.438 27.8277C39.4878 28.3105 41.3166 29.0508 41.3166 29.0508C51.3071 33.6534 59.7736 35.1018 59.7736 35.1018C77.6887 37.9664 76.6727 29.6623 76.6727 29.6623V29.6623ZM54.0164 23.3216C53.0004 23.3216 52.1876 22.5491 52.1876 21.5836C52.1876 20.618 53.0004 19.8455 54.0164 19.8455C55.0323 19.8455 55.8451 20.618 55.8451 21.5836C55.8451 22.5491 55.0323 23.3216 54.0164 23.3216Z" fill="url(#paint1_radial_152264_34)"/>
<path d="M42.4342 16.7235L30.8858 13.3118C30.8181 13.3118 30.4795 13.1508 29.8699 13.3118C29.8699 13.3118 23.0628 14.9533 24.2481 18.4938C24.2481 18.4938 24.9593 20.7146 26.8896 22.8711L39.5894 22.2917L42.4342 16.7235Z" fill="url(#paint2_linear_152264_34)"/>
<defs>
<linearGradient id="paint0_linear_152264_34" x1="14.0192" y1="77.7169" x2="53.8935" y2="33.0838" gradientUnits="userSpaceOnUse">
<stop stop-color="#E01D84"/>
<stop offset="0.401" stop-color="#DF1D85"/>
<stop offset="0.77" stop-color="#932C87"/>
<stop offset="1" stop-color="#5D2F88"/>
</linearGradient>
<radialGradient id="paint1_radial_152264_34" cx="0" cy="0" r="1" gradientUnits="userSpaceOnUse" gradientTransform="translate(60.402 23.8055) rotate(0.130145) scale(41.1751 32.7229)">
<stop stop-color="#E01D84"/>
<stop offset="0.139" stop-color="#DE1E85"/>
<stop offset="0.285" stop-color="#D62085"/>
<stop offset="0.434" stop-color="#C92386"/>
<stop offset="0.586" stop-color="#B72786"/>
<stop offset="0.739" stop-color="#9D2B87"/>
<stop offset="0.891" stop-color="#7C2E88"/>
<stop offset="1" stop-color="#5D2F88"/>
</radialGradient>
<linearGradient id="paint2_linear_152264_34" x1="24.0828" y1="18.0547" x2="42.4243" y2="18.0547" gradientUnits="userSpaceOnUse">
<stop stop-color="#E01D84"/>
<stop offset="0.238" stop-color="#DA1E85"/>
<stop offset="0.658" stop-color="#C72085"/>
<stop offset="0.999" stop-color="#B52284"/>
</linearGradient>
</defs>
</svg>
