<svg width="89" height="89" viewBox="0 0 89 89" fill="none" xmlns="http://www.w3.org/2000/svg">
<path opacity="0.8" d="M0 44.5V89H89V0H0V44.5Z" fill="#007ACC"/>
<path d="M19.6812 44.7961L19.653 48.4406H31.2369V81.3567H39.4312V48.4406H51.0151V44.8667C51.0151 42.8885 50.9727 41.2358 50.9163 41.1934C50.8739 41.137 43.8245 41.1085 35.2777 41.1228L19.7239 41.1652L19.6815 44.7958L19.6812 44.7961Z" fill="white"/>
<path d="M71.8143 41.0616C74.0744 41.6269 75.7981 42.6295 77.3803 44.2684C78.1997 45.1445 79.4144 46.7409 79.5135 47.1223C79.5413 47.2353 75.6709 49.8347 73.3259 51.2896C73.2411 51.3463 72.9018 50.9788 72.5204 50.4135C71.3763 48.7469 70.1755 48.0262 68.3388 47.8993C65.641 47.7154 63.903 49.1282 63.9173 51.4871C63.9173 52.1796 64.016 52.5892 64.2987 53.1545C64.8921 54.3834 65.9938 55.118 69.4551 56.6154C75.8263 59.3563 78.5526 61.1645 80.2481 63.7354C82.1411 66.6035 82.5649 71.1804 81.2792 74.585C79.8667 78.2862 76.3634 80.8011 71.4326 81.6345C69.9071 81.9028 66.2907 81.8604 64.6519 81.5639C61.078 80.928 57.6873 79.1623 55.5965 76.8455C54.7771 75.9412 53.1806 73.582 53.2797 73.4124C53.3221 73.3561 53.6892 73.1301 54.0988 72.8899C54.4944 72.6639 55.9921 71.8017 57.4046 70.9826L59.9617 69.4992L60.4984 70.2904C61.2473 71.4346 62.8858 73.0028 63.8749 73.5254C66.7142 75.0231 70.6135 74.811 72.5347 73.0873C73.3541 72.3388 73.693 71.5618 73.693 70.4173C73.693 69.3862 73.5658 68.9342 73.029 68.1576C72.3372 67.1685 70.9243 66.3348 66.912 64.5976C62.3209 62.6194 60.343 61.3904 58.5349 59.4408C57.4895 58.3109 56.5004 56.5024 56.0909 54.9908C55.7519 53.7336 55.6667 50.5832 55.9355 49.3118C56.8821 44.8757 60.2301 41.7823 65.0614 40.8638C66.6294 40.5672 70.2742 40.6802 71.8143 41.0619V41.0616Z" fill="white"/>
</svg>
